PathFileType	4	(X/Y/Z)	./resultDataOpenSim/trcMotMarkerGrf/sub06/qtm-02-04.trc
DataRate	CameraRate	NumFrames	NumMarkers	Units	OrigDataRate	OrigDataStartFrame	OrigNumFrames
250.000000	250.000000	9	24	m	250.000000	370	492
Frame#	Time	L.Toe.Tip			R.Toe.Tip			L.Ankle.Lat			R.Ankle.Lat			L.Ankle.Med			R.Ankle.Med			L.Heel			R.Heel			L.Knee.Lat			R.Knee.Lat			L.Knee.Med			R.Knee.Med			L.Thigh.Upper			R.Thigh.Upper			L.ASIS			R.ASIS			V.Sacral			L.Acromium			R.Acromium			C7			L.Elbow			R.Elbow			L.Wrist.Lat			R.Wrist.Lat
		X1	Y1	Z1	X2	Y2	Z2	X3	Y3	Z3	X4	Y4	Z4	X5	Y5	Z5	X6	Y6	Z6	X7	Y7	Z7	X8	Y8	Z8	X9	Y9	Z9	X10	Y10	Z10	X11	Y11	Z11	X12	Y12	Z12	X13	Y13	Z13	X14	Y14	Z14	X15	Y15	Z15	X16	Y16	Z16	X17	Y17	Z17	X18	Y18	Z18	X19	Y19	Z19	X20	Y20	Z20	X21	Y21	Z21	X22	Y22	Z22	X23	Y23	Z23	X24	Y24	Z24

370	1.476	1.4337606	0.099199316	-0.031604677	0.89761598	0.035301289	0.12279833	1.3061857	0.099681744	-0.047059935	0.76228181	0.070702556	0.14165347	1.3106789	0.11532504	0.037382651	0.79016327	0.093964922	0.05731944	1.2466691	0.051557142	0.00088551049	0.70977108	0.056052005	0.078865959	1.2473682	0.47028243	-0.052104511	0.90458208	0.43640012	0.18450911	1.2392682	0.46101612	0.068411935	0.88087121	0.43843006	0.053789466	1.0521191	0.80864083	-0.094529412	0.97734162	0.79463388	0.24662035	1.1105907	0.85373213	-0.038253439	1.084359	0.8477639	0.2093791	0.9122037	0.92005254	0.070927428	1.0155851	1.3324685	-0.10280569	1.0367755	1.3250657	0.2573286	0.95039498	1.3638379	0.082374128	0.9103019	1.0379875	-0.15876095	1.0427037	1.0083558	0.36174423	0.98727444	0.81099214	-0.20223385	1.2915456	1.0011576	0.31600588
371	1.48	1.4499634	0.1028719	-0.030098736	0.89767031	0.03526073	0.12274572	1.3223603	0.10002035	-0.046287592	0.76263212	0.071324636	0.14146708	1.3251443	0.11554761	0.037734971	0.79076374	0.09428115	0.057103257	1.2639509	0.050323123	0.0011533218	0.71002885	0.056968119	0.078665409	1.2533902	0.46779114	-0.051081625	0.90895034	0.43569924	0.18424916	1.2447465	0.45819598	0.069573706	0.88511805	0.43788283	0.053511963	1.05937	0.80683585	-0.094493108	0.98249086	0.79311829	0.24580178	1.1178196	0.8519917	-0.038199407	1.0903815	0.84596983	0.20965471	0.91864461	0.91845642	0.070409664	1.021732	1.3307209	-0.10305748	1.0428497	1.323612	0.25721644	0.95648027	1.3623248	0.082166411	0.91526285	1.0369359	-0.15847066	1.0504098	1.007028	0.36214295	0.9898655	0.80934747	-0.20283579	1.2989741	1.0024592	0.31498734
372	1.484	1.4655245	0.10673693	-0.028658593	0.89772395	0.035219265	0.12269399	1.3380152	0.10058529	-0.045516495	0.76304497	0.071986799	0.14135656	1.3392073	0.11594237	0.038137082	0.79137274	0.094625957	0.056907135	1.2807507	0.049298795	0.0016423312	0.71030808	0.057952017	0.078481202	1.259462	0.4652785	-0.050149272	0.9132534	0.43500066	0.18403306	1.2502903	0.45528629	0.070746053	0.88942089	0.43733012	0.053292492	1.0666497	0.8050267	-0.094443396	0.98767709	0.79155783	0.2448917	1.1251	0.85025767	-0.038135219	1.0964499	0.84417917	0.20987324	0.92506776	0.91687338	0.069728277	1.0279103	1.3289707	-0.10333286	1.0489273	1.3221439	0.2570888	0.96256987	1.3608028	0.081966596	0.92031353	1.0358604	-0.15827135	1.0580398	1.0056966	0.36247509	0.99259652	0.80773097	-0.20339393	1.306328	1.0036303	0.31397921
373	1.488	1.4804342	0.11076861	-0.027336498	0.8977797	0.035181132	0.12264498	1.3531159	0.10134828	-0.044768454	0.76352548	0.072664749	0.14129921	1.3533003	0.1165396	0.038748647	0.79198263	0.09498435	0.056675335	1.2970552	0.048439354	0.0023644945	0.71063458	0.058996636	0.078240792	1.2656189	0.4627821	-0.049311119	0.91732657	0.43430375	0.18387533	1.2558735	0.45232431	0.07193015	0.89379521	0.43677125	0.053119238	1.0739695	0.80322945	-0.094386804	0.99295709	0.79000782	0.24400299	1.1323758	0.84854431	-0.038039727	1.1025147	0.84254573	0.20992322	0.9315429	0.91528807	0.068806329	1.03412	1.327226	-0.10362916	1.0550081	1.3206658	0.25694083	0.96865607	1.3592768	0.081785407	0.92546801	1.0347594	-0.15819535	1.0656112	1.0043688	0.3627644	0.99546873	0.80614461	-0.20391504	1.3136238	1.0046662	0.31301857
374	1.492	1.4947284	0.1148154	-0.026123482	0.89784097	0.035151143	0.12259874	1.3676305	0.10225929	-0.044041029	0.76405764	0.073338632	0.1412312	1.3674444	0.1173201	0.039546609	0.79259784	0.095350032	0.056382521	1.312796	0.047744076	0.003209819	0.71101377	0.06011165	0.077925771	1.2718932	0.4603476	-0.048516405	0.92125928	0.43360203	0.18376337	1.2613355	0.44935242	0.073134442	0.8982442	0.43619586	0.052992637	1.0813392	0.80145811	-0.094330436	0.99835695	0.7885404	0.24323095	1.1396262	0.84686241	-0.037907007	1.10857	0.84110988	0.20982779	0.93813793	0.9136974	0.06780753	1.0403598	1.3254967	-0.10394199	1.0610945	1.3191836	0.25676839	0.97475514	1.3577571	0.081589749	0.93072743	1.0336452	-0.15822401	1.0731144	1.0030437	0.36300924	0.99848112	0.80458573	-0.20440386	1.3208736	1.0055588	0.31213878
375	1.496	1.5084492	0.11865814	-0.024966956	0.89790961	0.035132644	0.1225568	1.3815308	0.10325549	-0.043314264	0.7645926	0.074032954	0.14110322	1.3811883	0.11818043	0.040360886	0.79323395	0.095748253	0.056101285	1.32784	0.04725909	0.0039372988	0.71139436	0.061342668	0.077673929	1.2782932	0.45802252	-0.047707579	0.92524769	0.43289101	0.1836782	1.2663231	0.44639908	0.074360005	0.90276981	0.43559075	0.052907139	1.088765	0.7997125	-0.094276312	1.0038627	0.78717864	0.24257993	1.1468752	0.84521785	-0.037747747	1.1146384	0.83981047	0.2096931	0.94484706	0.91211218	0.066906548	1.0466314	1.3237889	-0.1042713	1.0671872	1.3177035	0.25656905	0.98088926	1.3562482	0.081322483	0.93608672	1.0325375	-0.15830376	1.0805374	1.0017235	0.36320713	1.0016364	0.80305181	-0.20486286	1.3280698	1.0063069	0.31133396
376	1.5	1.5215729	0.12215415	-0.023834583	0.89798352	0.035122764	0.12252173	1.3947874	0.10426936	-0.042566799	0.76510857	0.074804659	0.14096405	1.3940771	0.1190115	0.041085983	0.79390185	0.096228132	0.055961718	1.3420768	0.047001448	0.0043940887	0.71170864	0.062742098	0.077687078	1.2848079	0.45585099	-0.046851423	0.92941904	0.43217162	0.18360918	1.2705807	0.44350038	0.075592145	0.90739706	0.43494503	0.052834693	1.0962464	0.79798532	-0.094216189	1.0094536	0.7858861	0.24198027	1.1541644	0.84361542	-0.03757397	1.1207409	0.8385772	0.20958488	0.9515921	0.91054476	0.066112697	1.0529388	1.3221036	-0.1046235	1.0732865	1.316233	0.25634271	0.98706748	1.3547416	0.080960016	0.94154546	1.0314462	-0.15839196	1.0878791	1.0004157	0.36336447	1.0049475	0.80154552	-0.20529891	1.3351888	1.0069172	0.31057402
377	1.504	1.5340124	0.1252605	-0.022746348	0.89805497	0.035112077	0.1224975	1.4073698	0.10522643	-0.041773029	0.76564743	0.075690127	0.14093139	1.4060467	0.11980445	0.041790118	0.7946005	0.096822312	0.056027942	1.3554901	0.046899274	0.0047071396	0.7119748	0.064307457	0.077988339	1.2914336	0.45387428	-0.045941268	0.93379073	0.43144478	0.18355261	1.2744952	0.4407564	0.076817296	0.9121719	0.43425217	0.052738142	1.1037798	0.79628012	-0.094145644	1.0151338	0.78461691	0.24137079	1.1615213	0.84206197	-0.037393169	1.1269056	0.83736784	0.20951005	0.95831866	0.90900248	0.065364831	1.0592821	1.3204437	-0.10500131	1.0793944	1.3147794	0.25608929	0.99328821	1.3532311	0.080522629	0.94709827	1.0303665	-0.15849671	1.0951445	0.99912828	0.36349009	1.0084307	0.80007218	-0.2057243	1.3422138	1.0073958	0.30983451
378	1.508	1.5457009	0.12795535	-0.021761226	0.8981147	0.035090662	0.12249065	1.4192541	0.1060491	-0.040903626	0.76626055	0.076686218	0.14106311	1.4172587	0.12059868	0.042587316	0.79532671	0.097532728	0.056269398	1.3681261	0.046829063	0.0051805168	0.71229062	0.065984018	0.078414434	1.2981764	0.45212812	-0.044986667	0.93832887	0.43070686	0.1835118	1.2788836	0.43830223	0.0780248	0.91712826	0.43351316	0.052600825	1.1113668	0.7946138	-0.094071393	1.0209186	0.78335284	0.24073908	1.1689441	0.84056569	-0.037208277	1.1331913	0.83615533	0.20945364	0.96503385	0.90749084	0.064633085	1.065658	1.3188158	-0.10539829	1.0855151	1.3133473	0.25580638	0.99954731	1.351728	0.080039244	0.9527347	1.0292876	-0.15865824	1.1023397	0.99786663	0.36359044	1.0120965	0.79863201	-0.20614806	1.3491551	1.0077431	0.30910561
